# MagicaVoxel @ Ephtracy

# group
g podium

# material
mtllib podium.mtl
usemtl palette

# normals
vn -1 0 0
vn 1 0 0
vn 0 0 1
vn 0 0 -1
vn 0 -1 0
vn 0 1 0

# texcoords
vt 0.0214844 0.5
vt 0.0917969 0.5
vt 0.962891 0.5
vt 0.970703 0.5

# verts
v -6 0 13.5
v -6 0 -13.5
v -6 7 14.5
v -6 7 13.5
v -6 8 14.5
v -6 8 5.5
v -6 9 -13.5
v -6 9 -14.5
v -6 10 -5.5
v -6 10 -14.5
v -6 14 6.5
v -6 14 5.5
v -6 14 -5.5
v -6 14 -6.5
v -6 15 6.5
v -6 15 -6.5
v 5 0 13.5
v 5 0 -13.5
v 5 1 11.5
v 5 1 7.5
v 5 2 11.5
v 5 2 8.5
v 5 3 9.5
v 5 3 8.5
v 5 3 -6.5
v 5 3 -11.5
v 5 4 9.5
v 5 4 8.5
v 5 4 -7.5
v 5 4 -11.5
v 5 5 11.5
v 5 5 8.5
v 5 5 -7.5
v 5 5 -11.5
v 5 6 11.5
v 5 6 7.5
v 5 6 -6.5
v 5 6 -10.5
v 5 7 13.5
v 5 7 5.5
v 5 7 -6.5
v 5 7 -10.5
v 5 8 5.5
v 5 8 -6.5
v 5 8 -11.5
v 5 9 0.5
v 5 9 -0.5
v 5 9 -5.5
v 5 9 -13.5
v 5 10 -5.5
v 5 13 0.5
v 5 13 -0.5
v 5 14 5.5
v 5 14 -5.5
v 6 7 14.5
v 6 7 5.5
v 6 8 14.5
v 6 8 5.5
v 6 9 -5.5
v 6 9 -14.5
v 6 10 -5.5
v 6 10 -14.5
v 6 14 6.5
v 6 14 -6.5
v 6 15 6.5
v 6 15 -6.5
v -6 7 14.5
v -6 8 14.5
v 6 7 14.5
v 6 8 14.5
v -6 0 13.5
v -6 7 13.5
v 5 0 13.5
v 5 7 13.5
v -6 14 6.5
v -6 15 6.5
v 6 14 6.5
v 6 15 6.5
v -6 8 5.5
v -6 14 5.5
v 5 8 5.5
v 5 14 5.5
v 5 9 -5.5
v 5 10 -5.5
v 6 9 -5.5
v 6 10 -5.5
v 5 7 5.5
v 5 8 5.5
v 6 7 5.5
v 6 8 5.5
v -6 10 -5.5
v -6 14 -5.5
v 5 10 -5.5
v 5 14 -5.5
v -6 14 -6.5
v -6 15 -6.5
v 6 14 -6.5
v 6 15 -6.5
v -6 0 -13.5
v -6 9 -13.5
v 5 0 -13.5
v 5 9 -13.5
v -6 9 -14.5
v -6 10 -14.5
v 6 9 -14.5
v 6 10 -14.5
v -6 0 13.5
v 5 0 13.5
v -6 0 -13.5
v 5 0 -13.5
v -6 7 14.5
v 6 7 14.5
v -6 7 13.5
v 5 7 13.5
v 5 7 5.5
v 6 7 5.5
v 5 9 -5.5
v 6 9 -5.5
v -6 9 -13.5
v 5 9 -13.5
v -6 9 -14.5
v 6 9 -14.5
v -6 14 6.5
v 6 14 6.5
v -6 14 5.5
v 5 14 5.5
v -6 14 -5.5
v 5 14 -5.5
v -6 14 -6.5
v 6 14 -6.5
v -6 8 14.5
v 6 8 14.5
v -6 8 5.5
v 5 8 5.5
v 6 8 5.5
v -6 10 -5.5
v 5 10 -5.5
v 6 10 -5.5
v -6 10 -14.5
v 6 10 -14.5
v -6 15 6.5
v 6 15 6.5
v -6 15 -6.5
v 6 15 -6.5

# faces
f 4/3/1 2/3/1 1/3/1
f 5/3/1 4/3/1 3/3/1
f 6/3/1 2/3/1 4/3/1
f 6/3/1 4/3/1 5/3/1
f 7/3/1 2/3/1 6/3/1
f 9/3/1 7/3/1 6/3/1
f 9/3/1 8/3/1 7/3/1
f 10/3/1 8/3/1 9/3/1
f 12/3/1 9/3/1 6/3/1
f 13/3/1 9/3/1 12/3/1
f 15/3/1 12/3/1 11/3/1
f 15/3/1 14/3/1 13/3/1
f 15/3/1 13/3/1 12/3/1
f 16/3/1 14/3/1 15/3/1
f 17/3/2 18/3/2 19/3/2
f 19/3/2 18/3/2 20/3/2
f 17/3/2 19/3/2 21/3/2
f 19/2/2 20/2/2 21/2/2
f 21/2/2 20/2/2 22/2/2
f 21/3/2 22/3/2 23/3/2
f 22/2/2 20/2/2 24/2/2
f 23/3/2 22/3/2 24/3/2
f 20/3/2 18/3/2 25/3/2
f 25/3/2 18/3/2 26/3/2
f 21/3/2 23/3/2 27/3/2
f 23/2/2 24/2/2 27/2/2
f 24/2/2 20/2/2 28/2/2
f 27/2/2 24/2/2 28/2/2
f 25/4/2 26/4/2 29/4/2
f 26/3/2 18/3/2 30/3/2
f 29/4/2 26/4/2 30/4/2
f 21/3/2 27/3/2 31/3/2
f 17/3/2 21/3/2 31/3/2
f 27/3/2 28/3/2 31/3/2
f 28/2/2 20/2/2 32/2/2
f 31/3/2 28/3/2 32/3/2
f 29/3/2 30/3/2 33/3/2
f 25/4/2 29/4/2 33/4/2
f 30/3/2 18/3/2 34/3/2
f 33/3/2 30/3/2 34/3/2
f 31/2/2 32/2/2 35/2/2
f 17/3/2 31/3/2 35/3/2
f 32/2/2 20/2/2 36/2/2
f 35/2/2 32/2/2 36/2/2
f 20/3/2 25/3/2 36/3/2
f 25/4/2 33/4/2 37/4/2
f 36/3/2 25/3/2 37/3/2
f 33/4/2 34/4/2 37/4/2
f 37/4/2 34/4/2 38/4/2
f 35/3/2 36/3/2 39/3/2
f 17/3/2 35/3/2 39/3/2
f 37/3/2 38/3/2 39/3/2
f 36/3/2 37/3/2 39/3/2
f 39/3/2 38/3/2 40/3/2
f 40/3/2 38/3/2 41/3/2
f 38/4/2 34/4/2 42/4/2
f 41/3/2 38/3/2 42/3/2
f 40/3/2 41/3/2 43/3/2
f 41/4/2 42/4/2 44/4/2
f 43/3/2 41/3/2 44/3/2
f 42/4/2 34/4/2 45/4/2
f 44/4/2 42/4/2 45/4/2
f 34/3/2 18/3/2 45/3/2
f 43/3/2 44/3/2 46/3/2
f 44/3/2 45/3/2 46/3/2
f 46/3/2 45/3/2 47/3/2
f 47/3/2 45/3/2 48/3/2
f 45/3/2 18/3/2 49/3/2
f 48/3/2 45/3/2 49/3/2
f 47/3/2 48/3/2 50/3/2
f 43/3/2 46/3/2 51/3/2
f 46/1/2 47/1/2 51/1/2
f 47/3/2 50/3/2 52/3/2
f 51/1/2 47/1/2 52/1/2
f 43/3/2 51/3/2 53/3/2
f 51/3/2 52/3/2 53/3/2
f 52/3/2 50/3/2 54/3/2
f 53/3/2 52/3/2 54/3/2
f 55/3/2 56/3/2 57/3/2
f 57/3/2 56/3/2 58/3/2
f 59/3/2 60/3/2 61/3/2
f 61/3/2 60/3/2 62/3/2
f 63/3/2 64/3/2 65/3/2
f 65/3/2 64/3/2 66/3/2
f 69/3/3 68/3/3 67/3/3
f 70/3/3 68/3/3 69/3/3
f 73/3/3 72/3/3 71/3/3
f 74/3/3 72/3/3 73/3/3
f 77/3/3 76/3/3 75/3/3
f 78/3/3 76/3/3 77/3/3
f 81/3/3 80/3/3 79/3/3
f 82/3/3 80/3/3 81/3/3
f 85/3/3 84/3/3 83/3/3
f 86/3/3 84/3/3 85/3/3
f 87/3/4 88/3/4 89/3/4
f 89/3/4 88/3/4 90/3/4
f 91/3/4 92/3/4 93/3/4
f 93/3/4 92/3/4 94/3/4
f 95/3/4 96/3/4 97/3/4
f 97/3/4 96/3/4 98/3/4
f 99/3/4 100/3/4 101/3/4
f 101/3/4 100/3/4 102/3/4
f 103/3/4 104/3/4 105/3/4
f 105/3/4 104/3/4 106/3/4
f 109/3/5 108/3/5 107/3/5
f 110/3/5 108/3/5 109/3/5
f 113/3/5 112/3/5 111/3/5
f 114/3/5 112/3/5 113/3/5
f 115/3/5 112/3/5 114/3/5
f 116/3/5 112/3/5 115/3/5
f 120/3/5 118/3/5 117/3/5
f 121/3/5 120/3/5 119/3/5
f 122/3/5 118/3/5 120/3/5
f 122/3/5 120/3/5 121/3/5
f 125/3/5 124/3/5 123/3/5
f 126/3/5 124/3/5 125/3/5
f 128/3/5 124/3/5 126/3/5
f 129/3/5 128/3/5 127/3/5
f 130/3/5 124/3/5 128/3/5
f 130/3/5 128/3/5 129/3/5
f 131/3/6 132/3/6 133/3/6
f 133/3/6 132/3/6 134/3/6
f 134/3/6 132/3/6 135/3/6
f 136/3/6 137/3/6 139/3/6
f 137/3/6 138/3/6 139/3/6
f 139/3/6 138/3/6 140/3/6
f 141/3/6 142/3/6 143/3/6
f 143/3/6 142/3/6 144/3/6
