# MagicaVoxel @ Ephtracy

# group
g socle

# material
mtllib socle.mtl
usemtl palette

# normals
vn -1 0 0
vn 1 0 0
vn 0 0 1
vn 0 0 -1
vn 0 -1 0
vn 0 1 0

# texcoords
vt 0.00195313 0.5
vt 0.396484 0.5

# verts
v -5.5 0 5.5
v -5.5 0 -5.5
v -5.5 1 5.5
v -5.5 1 -5.5
v -4.5 1 4.5
v -4.5 1 -4.5
v -4.5 2 4.5
v -4.5 2 -4.5
v -3.5 2 3.5
v -3.5 2 -3.5
v -3.5 6 2.5
v -3.5 6 -2.5
v -3.5 9 2.5
v -3.5 9 -2.5
v -3.5 11 3.5
v -3.5 11 -3.5
v 3.5 2 3.5
v 3.5 2 -3.5
v 3.5 11 3.5
v 3.5 11 -3.5
v 4.5 1 4.5
v 4.5 1 -4.5
v 4.5 2 4.5
v 4.5 2 -4.5
v 5.5 0 5.5
v 5.5 0 -5.5
v 5.5 1 5.5
v 5.5 1 -5.5
v -5.5 0 5.5
v -5.5 1 5.5
v 5.5 0 5.5
v 5.5 1 5.5
v -4.5 1 4.5
v -4.5 2 4.5
v 4.5 1 4.5
v 4.5 2 4.5
v -3.5 2 3.5
v -3.5 11 3.5
v 3.5 2 3.5
v 3.5 11 3.5
v -3.5 2 -3.5
v -3.5 11 -3.5
v 3.5 2 -3.5
v 3.5 11 -3.5
v -4.5 1 -4.5
v -4.5 2 -4.5
v 4.5 1 -4.5
v 4.5 2 -4.5
v -5.5 0 -5.5
v -5.5 1 -5.5
v 5.5 0 -5.5
v 5.5 1 -5.5
v -5.5 0 5.5
v 5.5 0 5.5
v -5.5 0 -5.5
v 5.5 0 -5.5
v -5.5 1 5.5
v 5.5 1 5.5
v -4.5 1 4.5
v 4.5 1 4.5
v -4.5 1 -4.5
v 4.5 1 -4.5
v -5.5 1 -5.5
v 5.5 1 -5.5
v -4.5 2 4.5
v 4.5 2 4.5
v -3.5 2 3.5
v 3.5 2 3.5
v -3.5 2 -3.5
v 3.5 2 -3.5
v -4.5 2 -4.5
v 4.5 2 -4.5
v -3.5 11 3.5
v 3.5 11 3.5
v -3.5 11 -3.5
v 3.5 11 -3.5

# faces
f 3/1/1 2/1/1 1/1/1
f 4/1/1 2/1/1 3/1/1
f 7/1/1 6/1/1 5/1/1
f 8/1/1 6/1/1 7/1/1
f 11/1/1 10/1/1 9/1/1
f 12/1/1 10/1/1 11/1/1
f 13/1/1 11/1/1 9/1/1
f 13/2/1 12/2/1 11/2/1
f 14/1/1 10/1/1 12/1/1
f 14/2/1 12/2/1 13/2/1
f 15/1/1 13/1/1 9/1/1
f 15/1/1 14/1/1 13/1/1
f 16/1/1 10/1/1 14/1/1
f 16/1/1 14/1/1 15/1/1
f 17/1/2 18/1/2 19/1/2
f 19/1/2 18/1/2 20/1/2
f 21/1/2 22/1/2 23/1/2
f 23/1/2 22/1/2 24/1/2
f 25/1/2 26/1/2 27/1/2
f 27/1/2 26/1/2 28/1/2
f 31/1/3 30/1/3 29/1/3
f 32/1/3 30/1/3 31/1/3
f 35/1/3 34/1/3 33/1/3
f 36/1/3 34/1/3 35/1/3
f 39/1/3 38/1/3 37/1/3
f 40/1/3 38/1/3 39/1/3
f 41/1/4 42/1/4 43/1/4
f 43/1/4 42/1/4 44/1/4
f 45/1/4 46/1/4 47/1/4
f 47/1/4 46/1/4 48/1/4
f 49/1/4 50/1/4 51/1/4
f 51/1/4 50/1/4 52/1/4
f 55/1/5 54/1/5 53/1/5
f 56/1/5 54/1/5 55/1/5
f 57/1/6 58/1/6 59/1/6
f 59/1/6 58/1/6 60/1/6
f 57/1/6 59/1/6 61/1/6
f 60/1/6 58/1/6 62/1/6
f 57/1/6 61/1/6 63/1/6
f 61/1/6 62/1/6 63/1/6
f 62/1/6 58/1/6 64/1/6
f 63/1/6 62/1/6 64/1/6
f 65/1/6 66/1/6 67/1/6
f 67/1/6 66/1/6 68/1/6
f 65/1/6 67/1/6 69/1/6
f 68/1/6 66/1/6 70/1/6
f 65/1/6 69/1/6 71/1/6
f 69/1/6 70/1/6 71/1/6
f 70/1/6 66/1/6 72/1/6
f 71/1/6 70/1/6 72/1/6
f 73/1/6 74/1/6 75/1/6
f 75/1/6 74/1/6 76/1/6
