# MagicaVoxel @ Ephtracy

# group
g troittoir-virage

# material
mtllib troittoir-virage.mtl
usemtl palette

# normals
vn -1 0 0
vn 1 0 0
vn 0 0 1
vn 0 0 -1
vn 0 -1 0
vn 0 1 0

# texcoords
vt 0.978516 0.5
vt 0.982422 0.5
vt 0.986328 0.5

# verts
v -10 0 10
v -10 0 8
v -10 0 7
v -10 0 3
v -10 0 2
v -10 0 -2
v -10 0 -3
v -10 0 -7
v -10 0 -8
v -10 0 -10
v -10 3 10
v -10 3 8
v -10 3 7
v -10 3 3
v -10 3 2
v -10 3 -2
v -10 3 -3
v -10 3 -7
v -10 3 -8
v -10 3 -10
v -8 2 10
v -8 2 8
v -8 2 7
v -8 2 3
v -8 2 2
v -8 2 -2
v -8 2 -3
v -8 2 -7
v -8 2 -8
v -8 3 10
v -8 3 8
v -8 3 7
v -8 3 3
v -8 3 2
v -8 3 -2
v -8 3 -3
v -8 3 -7
v -8 3 -8
v 10 0 10
v 10 0 -8
v 10 0 -10
v 10 2 10
v 10 2 -8
v 10 3 -8
v 10 3 -10
v -10 0 10
v -10 3 10
v -8 0 10
v -8 2 10
v -8 3 10
v 10 0 10
v 10 2 10
v -8 2 -8
v -8 3 -8
v -7 2 -8
v -7 3 -8
v -3 2 -8
v -3 3 -8
v -2 2 -8
v -2 3 -8
v 2 2 -8
v 2 3 -8
v 3 2 -8
v 3 3 -8
v 7 2 -8
v 7 3 -8
v 8 2 -8
v 8 3 -8
v 10 2 -8
v 10 3 -8
v -10 0 -10
v -10 3 -10
v -8 0 -10
v -8 3 -10
v -7 0 -10
v -7 3 -10
v -3 0 -10
v -3 3 -10
v -2 0 -10
v -2 3 -10
v 2 0 -10
v 2 3 -10
v 3 0 -10
v 3 3 -10
v 7 0 -10
v 7 3 -10
v 8 0 -10
v 8 3 -10
v 10 0 -10
v 10 3 -10
v -10 0 10
v -8 0 10
v 10 0 10
v -10 0 8
v -8 0 8
v -10 0 7
v -8 0 7
v -10 0 3
v -8 0 3
v -10 0 2
v -8 0 2
v -10 0 -2
v -8 0 -2
v -10 0 -3
v -8 0 -3
v -10 0 -7
v -8 0 -7
v -10 0 -8
v -8 0 -8
v -7 0 -8
v -3 0 -8
v -2 0 -8
v 2 0 -8
v 3 0 -8
v 7 0 -8
v 8 0 -8
v 10 0 -8
v -10 0 -10
v -8 0 -10
v -7 0 -10
v -3 0 -10
v -2 0 -10
v 2 0 -10
v 3 0 -10
v 7 0 -10
v 8 0 -10
v 10 0 -10
v -8 2 10
v 10 2 10
v -8 2 8
v -8 2 7
v -8 2 3
v -8 2 2
v -8 2 -2
v -8 2 -3
v -8 2 -7
v -8 2 -8
v -7 2 -8
v -3 2 -8
v -2 2 -8
v 2 2 -8
v 3 2 -8
v 7 2 -8
v 8 2 -8
v 10 2 -8
v -10 3 10
v -8 3 10
v -10 3 8
v -8 3 8
v -10 3 7
v -8 3 7
v -10 3 3
v -8 3 3
v -10 3 2
v -8 3 2
v -10 3 -2
v -8 3 -2
v -10 3 -3
v -8 3 -3
v -10 3 -7
v -8 3 -7
v -10 3 -8
v -8 3 -8
v -7 3 -8
v -3 3 -8
v -2 3 -8
v 2 3 -8
v 3 3 -8
v 7 3 -8
v 8 3 -8
v 10 3 -8
v -10 3 -10
v -8 3 -10
v -7 3 -10
v -3 3 -10
v -2 3 -10
v 2 3 -10
v 3 3 -10
v 7 3 -10
v 8 3 -10
v 10 3 -10

# faces
f 11/2/1 2/2/1 1/2/1
f 12/3/1 3/3/1 2/3/1
f 12/2/1 2/2/1 11/2/1
f 13/2/1 4/2/1 3/2/1
f 13/3/1 3/3/1 12/3/1
f 14/3/1 5/3/1 4/3/1
f 14/2/1 4/2/1 13/2/1
f 15/2/1 6/2/1 5/2/1
f 15/3/1 5/3/1 14/3/1
f 16/3/1 7/3/1 6/3/1
f 16/2/1 6/2/1 15/2/1
f 17/2/1 8/2/1 7/2/1
f 17/3/1 7/3/1 16/3/1
f 18/3/1 9/3/1 8/3/1
f 18/2/1 8/2/1 17/2/1
f 19/2/1 10/2/1 9/2/1
f 19/3/1 9/3/1 18/3/1
f 20/2/1 10/2/1 19/2/1
f 21/2/2 22/2/2 30/2/2
f 22/3/2 23/3/2 31/3/2
f 30/2/2 22/2/2 31/2/2
f 23/2/2 24/2/2 32/2/2
f 31/3/2 23/3/2 32/3/2
f 24/3/2 25/3/2 33/3/2
f 32/2/2 24/2/2 33/2/2
f 25/2/2 26/2/2 34/2/2
f 33/3/2 25/3/2 34/3/2
f 26/3/2 27/3/2 35/3/2
f 34/2/2 26/2/2 35/2/2
f 27/2/2 28/2/2 36/2/2
f 35/3/2 27/3/2 36/3/2
f 28/3/2 29/3/2 37/3/2
f 36/2/2 28/2/2 37/2/2
f 37/3/2 29/3/2 38/3/2
f 39/1/2 40/1/2 42/1/2
f 40/2/2 41/2/2 43/2/2
f 42/1/2 40/1/2 43/1/2
f 43/2/2 41/2/2 44/2/2
f 44/2/2 41/2/2 45/2/2
f 48/2/3 47/2/3 46/2/3
f 49/2/3 47/2/3 48/2/3
f 50/2/3 47/2/3 49/2/3
f 51/1/3 49/1/3 48/1/3
f 52/1/3 49/1/3 51/1/3
f 55/3/3 54/3/3 53/3/3
f 56/3/3 54/3/3 55/3/3
f 57/2/3 56/2/3 55/2/3
f 58/2/3 56/2/3 57/2/3
f 59/3/3 58/3/3 57/3/3
f 60/3/3 58/3/3 59/3/3
f 61/2/3 60/2/3 59/2/3
f 62/2/3 60/2/3 61/2/3
f 63/3/3 62/3/3 61/3/3
f 64/3/3 62/3/3 63/3/3
f 65/2/3 64/2/3 63/2/3
f 66/2/3 64/2/3 65/2/3
f 67/3/3 66/3/3 65/3/3
f 68/3/3 66/3/3 67/3/3
f 69/2/3 68/2/3 67/2/3
f 70/2/3 68/2/3 69/2/3
f 71/2/4 72/2/4 73/2/4
f 73/2/4 72/2/4 74/2/4
f 73/3/4 74/3/4 75/3/4
f 75/3/4 74/3/4 76/3/4
f 75/2/4 76/2/4 77/2/4
f 77/2/4 76/2/4 78/2/4
f 77/3/4 78/3/4 79/3/4
f 79/3/4 78/3/4 80/3/4
f 79/2/4 80/2/4 81/2/4
f 81/2/4 80/2/4 82/2/4
f 81/3/4 82/3/4 83/3/4
f 83/3/4 82/3/4 84/3/4
f 83/2/4 84/2/4 85/2/4
f 85/2/4 84/2/4 86/2/4
f 85/3/4 86/3/4 87/3/4
f 87/3/4 86/3/4 88/3/4
f 87/2/4 88/2/4 89/2/4
f 89/2/4 88/2/4 90/2/4
f 94/2/5 92/2/5 91/2/5
f 95/1/5 93/1/5 92/1/5
f 95/2/5 92/2/5 94/2/5
f 96/3/5 95/3/5 94/3/5
f 97/1/5 93/1/5 95/1/5
f 97/3/5 95/3/5 96/3/5
f 98/2/5 97/2/5 96/2/5
f 99/1/5 93/1/5 97/1/5
f 99/2/5 97/2/5 98/2/5
f 100/3/5 99/3/5 98/3/5
f 101/1/5 93/1/5 99/1/5
f 101/3/5 99/3/5 100/3/5
f 102/2/5 101/2/5 100/2/5
f 103/1/5 93/1/5 101/1/5
f 103/2/5 101/2/5 102/2/5
f 104/3/5 103/3/5 102/3/5
f 105/1/5 93/1/5 103/1/5
f 105/3/5 103/3/5 104/3/5
f 106/2/5 105/2/5 104/2/5
f 107/1/5 93/1/5 105/1/5
f 107/2/5 105/2/5 106/2/5
f 108/3/5 107/3/5 106/3/5
f 109/1/5 93/1/5 107/1/5
f 109/3/5 107/3/5 108/3/5
f 110/1/5 93/1/5 109/1/5
f 111/1/5 93/1/5 110/1/5
f 112/1/5 93/1/5 111/1/5
f 113/1/5 93/1/5 112/1/5
f 114/1/5 93/1/5 113/1/5
f 115/1/5 93/1/5 114/1/5
f 116/1/5 93/1/5 115/1/5
f 117/1/5 93/1/5 116/1/5
f 118/2/5 109/2/5 108/2/5
f 119/3/5 110/3/5 109/3/5
f 119/2/5 109/2/5 118/2/5
f 120/2/5 111/2/5 110/2/5
f 120/3/5 110/3/5 119/3/5
f 121/3/5 112/3/5 111/3/5
f 121/2/5 111/2/5 120/2/5
f 122/2/5 113/2/5 112/2/5
f 122/3/5 112/3/5 121/3/5
f 123/3/5 114/3/5 113/3/5
f 123/2/5 113/2/5 122/2/5
f 124/2/5 115/2/5 114/2/5
f 124/3/5 114/3/5 123/3/5
f 125/3/5 116/3/5 115/3/5
f 125/2/5 115/2/5 124/2/5
f 126/2/5 117/2/5 116/2/5
f 126/3/5 116/3/5 125/3/5
f 127/2/5 117/2/5 126/2/5
f 128/1/6 129/1/6 130/1/6
f 130/1/6 129/1/6 131/1/6
f 131/1/6 129/1/6 132/1/6
f 132/1/6 129/1/6 133/1/6
f 133/1/6 129/1/6 134/1/6
f 134/1/6 129/1/6 135/1/6
f 135/1/6 129/1/6 136/1/6
f 136/1/6 129/1/6 137/1/6
f 137/1/6 129/1/6 138/1/6
f 138/1/6 129/1/6 139/1/6
f 139/1/6 129/1/6 140/1/6
f 140/1/6 129/1/6 141/1/6
f 141/1/6 129/1/6 142/1/6
f 142/1/6 129/1/6 143/1/6
f 143/1/6 129/1/6 144/1/6
f 144/1/6 129/1/6 145/1/6
f 146/2/6 147/2/6 148/2/6
f 148/2/6 147/2/6 149/2/6
f 148/3/6 149/3/6 150/3/6
f 150/3/6 149/3/6 151/3/6
f 150/2/6 151/2/6 152/2/6
f 152/2/6 151/2/6 153/2/6
f 152/3/6 153/3/6 154/3/6
f 154/3/6 153/3/6 155/3/6
f 154/2/6 155/2/6 156/2/6
f 156/2/6 155/2/6 157/2/6
f 156/3/6 157/3/6 158/3/6
f 158/3/6 157/3/6 159/3/6
f 158/2/6 159/2/6 160/2/6
f 160/2/6 159/2/6 161/2/6
f 160/3/6 161/3/6 162/3/6
f 162/3/6 161/3/6 163/3/6
f 162/2/6 163/2/6 172/2/6
f 163/3/6 164/3/6 173/3/6
f 172/2/6 163/2/6 173/2/6
f 164/2/6 165/2/6 174/2/6
f 173/3/6 164/3/6 174/3/6
f 165/3/6 166/3/6 175/3/6
f 174/2/6 165/2/6 175/2/6
f 166/2/6 167/2/6 176/2/6
f 175/3/6 166/3/6 176/3/6
f 167/3/6 168/3/6 177/3/6
f 176/2/6 167/2/6 177/2/6
f 168/2/6 169/2/6 178/2/6
f 177/3/6 168/3/6 178/3/6
f 169/3/6 170/3/6 179/3/6
f 178/2/6 169/2/6 179/2/6
f 170/2/6 171/2/6 180/2/6
f 179/3/6 170/3/6 180/3/6
f 180/2/6 171/2/6 181/2/6
