# MagicaVoxel @ Ephtracy

# group
g troittoir-corner

# material
mtllib troittoir-corner.mtl
usemtl palette

# normals
vn -1 0 0
vn 1 0 0
vn 0 0 1
vn 0 0 -1
vn 0 -1 0
vn 0 1 0

# texcoords
vt 0.978516 0.5
vt 0.982422 0.5

# verts
v -10 0 10
v -10 0 8
v -10 0 -10
v -10 2 8
v -10 2 -10
v -10 3 10
v -10 3 8
v -8 2 10
v -8 2 8
v -8 3 10
v -8 3 8
v 10 0 10
v 10 0 -10
v 10 2 10
v 10 2 -10
v -10 0 10
v -10 3 10
v -8 0 10
v -8 2 10
v -8 3 10
v 10 0 10
v 10 2 10
v -10 2 8
v -10 3 8
v -8 2 8
v -8 3 8
v -10 0 -10
v -10 2 -10
v 10 0 -10
v 10 2 -10
v -10 0 10
v -8 0 10
v 10 0 10
v -10 0 8
v -8 0 8
v -10 0 -10
v 10 0 -10
v -8 2 10
v 10 2 10
v -10 2 8
v -8 2 8
v -10 2 -10
v 10 2 -10
v -10 3 10
v -8 3 10
v -10 3 8
v -8 3 8

# faces
f 4/2/1 2/2/1 1/2/1
f 4/1/1 3/1/1 2/1/1
f 5/1/1 3/1/1 4/1/1
f 6/2/1 4/2/1 1/2/1
f 7/2/1 4/2/1 6/2/1
f 8/2/2 9/2/2 10/2/2
f 10/2/2 9/2/2 11/2/2
f 12/1/2 13/1/2 14/1/2
f 14/1/2 13/1/2 15/1/2
f 18/2/3 17/2/3 16/2/3
f 19/2/3 17/2/3 18/2/3
f 20/2/3 17/2/3 19/2/3
f 21/1/3 19/1/3 18/1/3
f 22/1/3 19/1/3 21/1/3
f 23/2/4 24/2/4 25/2/4
f 25/2/4 24/2/4 26/2/4
f 27/1/4 28/1/4 29/1/4
f 29/1/4 28/1/4 30/1/4
f 34/2/5 32/2/5 31/2/5
f 35/1/5 33/1/5 32/1/5
f 35/2/5 32/2/5 34/2/5
f 36/1/5 35/1/5 34/1/5
f 37/1/5 33/1/5 35/1/5
f 37/1/5 35/1/5 36/1/5
f 38/1/6 39/1/6 41/1/6
f 40/1/6 41/1/6 42/1/6
f 41/1/6 39/1/6 43/1/6
f 42/1/6 41/1/6 43/1/6
f 44/2/6 45/2/6 46/2/6
f 46/2/6 45/2/6 47/2/6
